<?xml version="1.0" encoding="utf-8"?>
<!-- Generator: Adobe Illustrator 23.1.0, SVG Export Plug-In . SVG Version: 6.00 Build 0)  -->
<svg version="1.1" id="Layer_1" xmlns="http://www.w3.org/2000/svg" xmlns:xlink="http://www.w3.org/1999/xlink" x="0px" y="0px"
	 viewBox="0 0 535 177" style="enable-background:new 0 0 535 177;" xml:space="preserve">
<style type="text/css">
	.st0{fill:#FCB813;}
</style>
<path class="st0" d="M74.38,95.15V2.66L44.91,7.58v4.11c13.16,0,15.51,3.33,15.51,22.96v32.02c-5.89-7.26-14.13-11.58-23.95-11.58
	c-18.67,0-34.18,16.13-34.18,35.95c0,19.84,15.51,36.12,34.18,36.12c10.8,0,18.65-5.1,24.15-11.97c0.6,3.15,2.17,10.02,3.14,11.97
	l26.12-4.9v-4.12C76.91,118.14,74.38,114.79,74.38,95.15 M60.42,103.81c-3.53,9.22-10.99,15.5-19.83,15.5
	c-15.33,0-22.38-12.56-22.38-28.28c0-15.71,7.06-28.08,22.38-28.08c8.84,0,16.3,6.29,19.83,15.51V103.81z M123.44,35.85
	c4.74,0,8.67-3.92,8.67-8.84c0-4.72-3.92-8.66-8.67-8.66c-4.7,0-8.62,3.95-8.62,8.66C114.82,31.93,118.74,35.85,123.44,35.85z
	 M130.54,96.73V55.09l-29.46,4.92v4.12c12.96,0,15.49,3.14,15.49,22.77v9.85c0,19.63-2.53,22.98-15.49,22.98v4.11h44.97v-4.11
	C132.87,119.72,130.54,116.36,130.54,96.73z M222.25,55.09c-4.13,0-11.2,3.16-14.74,7.46c-5.29-4.72-12.37-7.46-20.24-7.46
	c-16.08,0-29.26,11.99-29.26,26.71c0,10.61,6.7,19.23,16.5,23.96c-10.23,3.14-16.5,8.65-16.5,15.72c0,11.8,11.8,16.69,27.9,18.27
	c16.49,1.57,26.32,4.5,26.32,13.74c0,9.23-12.18,15.13-24.36,15.13c-15.52,0-34.77-8.83-18.47-27.1l-3.51-2.16
	c-24.16,12.56-11.19,36.93,21.99,36.93c19.26,0,34.76-10.03,34.76-26.33c0-11.99-8.63-23.56-35.74-25.72
	c-6.49-0.6-17.86-2.16-17.86-7.46c0-5.29,13.34-7.26,21.99-8.24c12.77-1.78,25.53-12.2,25.53-26.72c0-5.92-2.15-11.58-5.69-15.9
	c2.17-2.17,4.52-3.15,6.07-3.15c8.06,0,3.16,9.45,11.8,8.84C236.58,71.21,235.79,55.09,222.25,55.09z M187.27,102.03
	c-9.6,0-14.34-8.85-14.34-20.23c0-11.58,4.73-20.42,14.34-20.42c9.64,0,14.16,8.84,14.16,20.42
	C201.43,93.18,196.91,102.03,187.27,102.03z M322.58,96.73V84.36c0-16.7-7.85-29.27-25.52-29.27c-12.95,0-22.01,7.46-27.28,14.15
	c-0.61-4.14-2.38-12.17-3.36-14.15l-26.11,4.92v4.12c12.95,0,15.51,3.14,15.51,22.77v9.85c0,19.63-2.56,22.98-15.51,22.98v4.11
	h43.21v-4.11c-12.18,0-13.74-2.76-13.74-22.98V83.98c0-10.84,11.76-19.66,22.57-19.66c11.8,0,16.3,8.24,16.3,21.02v11.4
	c0,19.63-2.74,22.98-15.52,22.98v4.11h44.98v-4.11C324.93,119.72,322.58,116.36,322.58,96.73z M378.73,96.73V55.09l-29.44,4.92v4.12
	c12.97,0,15.51,3.14,15.51,22.77v9.85c0,19.63-2.54,22.98-15.51,22.98v4.11h44.98v-4.11C381.12,119.72,378.73,116.36,378.73,96.73z
	 M427.64,58.43V43.71c0-18.66-12.76-31.24-33.37-31.24c-17.47,0-31.22,4.91-31.22,14.55c0,4.91,3.92,8.84,8.64,8.84
	c4.71,0,7.05-2.96,9.03-7.09c1.96-5.1,5.7-10.61,15.12-10.61c16.12,0,23.17,10.81,23.17,20.43c0,9.02-3.93,19.44-15.71,21.99v4.71
	h10.41v39.69c0,15.32,7.27,22.17,18.07,22.17c6.69,0,15.32-4.69,20.62-11.38l-3.16-3.33c-4.5,4.31-9.22,6.86-12.75,6.86
	c-6.28,0-8.85-4.9-8.85-14.32V65.3l27.33,0.01c6.08,0,9.02,2.97,13.15,11.6l20.63,44.58c-8.24,22.59-19.65,45.37-38.71,45.37
	c-11.38,0-6.87-10.01-13.72-10.01c-4.91,0-6.88,3.13-6.88,7.66c0,4.9,7.06,11.01,16.89,11.01c28.47,0,41.44-29.49,49.48-49.3
	l21.01-52.24c3.53-8.66,7.86-11.59,13.95-11.59v-3.93h-27.49v3.93c8.04,0,9.43,2.75,5.69,11.59l-12.56,31.42l-14.34-31.42
	c-4.52-9.63-2.36-11.59,6.26-11.59v-3.95H427.64z"/>
</svg>
